<svg width="95" height="42" viewBox="0 0 95 42" fill="none" xmlns="http://www.w3.org/2000/svg">
<rect x="1" y="1" width="93" height="40" rx="11" stroke="#F17965" stroke-width="2"/>
<path d="M23.0046 18.0898C22.9549 17.6246 22.7454 17.2624 22.3761 17.0032C22.0103 16.744 21.5344 16.6143 20.9485 16.6143C20.5366 16.6143 20.1832 16.6765 19.8885 16.8008C19.5938 16.9251 19.3683 17.0937 19.212 17.3068C19.0558 17.5199 18.9759 17.7631 18.9723 18.0366C18.9723 18.2638 19.0238 18.4609 19.1268 18.6278C19.2333 18.7947 19.3771 18.9368 19.5582 19.054C19.7393 19.1676 19.94 19.2635 20.1602 19.3416C20.3803 19.4197 20.6023 19.4854 20.826 19.5387L21.8487 19.7944C22.2607 19.8903 22.6566 20.0199 23.0366 20.1832C23.4201 20.3466 23.7628 20.5526 24.0646 20.8011C24.37 21.0497 24.6115 21.3498 24.7891 21.7013C24.9666 22.0529 25.0554 22.4648 25.0554 22.9371C25.0554 23.5763 24.892 24.1392 24.5653 24.6257C24.2386 25.1087 23.7663 25.4869 23.1484 25.7603C22.5341 26.0302 21.7901 26.1651 20.9165 26.1651C20.0678 26.1651 19.331 26.0337 18.706 25.771C18.0845 25.5082 17.598 25.1246 17.2464 24.6204C16.8984 24.1161 16.7102 23.5018 16.6818 22.7773H18.6261C18.6545 23.1573 18.7717 23.4734 18.9776 23.7255C19.1836 23.9776 19.4517 24.1658 19.782 24.2901C20.1158 24.4144 20.4886 24.4766 20.9006 24.4766C21.3303 24.4766 21.7067 24.4126 22.0298 24.2848C22.3565 24.1534 22.6122 23.9723 22.7969 23.7415C22.9815 23.5071 23.0756 23.2337 23.0792 22.9212C23.0756 22.6371 22.9922 22.4027 22.8288 22.218C22.6655 22.0298 22.4364 21.8736 22.1417 21.7493C21.8505 21.6214 21.5096 21.5078 21.119 21.4084L19.8778 21.0888C18.9794 20.858 18.2692 20.5082 17.7472 20.0394C17.2287 19.5671 16.9695 18.9403 16.9695 18.1591C16.9695 17.5163 17.1435 16.9535 17.4915 16.4705C17.843 15.9876 18.3207 15.6129 18.9244 15.3466C19.5281 15.0767 20.2116 14.9418 20.9751 14.9418C21.7493 14.9418 22.4276 15.0767 23.0099 15.3466C23.5959 15.6129 24.0558 15.984 24.3896 16.4599C24.7234 16.9322 24.8956 17.4755 24.9062 18.0898H23.0046ZM29.6041 26.1598C28.7838 26.1598 28.0754 25.9893 27.4788 25.6484C26.8857 25.304 26.4294 24.8175 26.1098 24.1889C25.7902 23.5568 25.6304 22.8129 25.6304 21.957C25.6304 21.1154 25.7902 20.3768 26.1098 19.7411C26.433 19.1019 26.884 18.6048 27.4628 18.2496C28.0416 17.891 28.7217 17.7116 29.5029 17.7116C30.0072 17.7116 30.483 17.7933 30.9305 17.9567C31.3815 18.1165 31.7792 18.3651 32.1237 18.7024C32.4717 19.0398 32.7451 19.4695 32.944 19.9915C33.1428 20.5099 33.2423 21.1278 33.2423 21.8452V22.4364H26.536V21.1367H31.3939C31.3904 20.7674 31.3105 20.4389 31.1542 20.1513C30.998 19.8601 30.7796 19.631 30.499 19.4641C30.222 19.2972 29.8989 19.2138 29.5296 19.2138C29.1354 19.2138 28.7892 19.3097 28.4909 19.5014C28.1926 19.6896 27.96 19.9382 27.7931 20.2472C27.6297 20.5526 27.5463 20.8881 27.5427 21.2539V22.3885C27.5427 22.8643 27.6297 23.2727 27.8037 23.6136C27.9777 23.951 28.221 24.2102 28.5335 24.3913C28.846 24.5689 29.2117 24.6577 29.6308 24.6577C29.9113 24.6577 30.1652 24.6186 30.3925 24.5405C30.6198 24.4588 30.8169 24.3398 30.9838 24.1836C31.1507 24.0273 31.2767 23.8338 31.3619 23.603L33.1624 23.8054C33.0487 24.2812 32.8321 24.6967 32.5125 25.0518C32.1965 25.4034 31.7916 25.6768 31.298 25.8722C30.8044 26.0639 30.2398 26.1598 29.6041 26.1598ZM37.6925 26.1598C36.8757 26.1598 36.1744 25.9805 35.5884 25.6218C35.006 25.2631 34.5568 24.7678 34.2408 24.1357C33.9283 23.5 33.772 22.7685 33.772 21.9411C33.772 21.1101 33.9318 20.3768 34.2514 19.7411C34.571 19.1019 35.022 18.6048 35.6044 18.2496C36.1903 17.891 36.8828 17.7116 37.6818 17.7116C38.3459 17.7116 38.9336 17.8342 39.445 18.0792C39.9599 18.3207 40.37 18.6634 40.6754 19.1072C40.9808 19.5476 41.1548 20.0625 41.1974 20.652H39.3544C39.2798 20.2578 39.1023 19.9293 38.8217 19.6665C38.5447 19.4002 38.1737 19.267 37.7085 19.267C37.3143 19.267 36.968 19.3736 36.6697 19.5866C36.3714 19.7962 36.1388 20.098 35.9719 20.4922C35.8086 20.8864 35.7269 21.3587 35.7269 21.9091C35.7269 22.4666 35.8086 22.946 35.9719 23.3473C36.1353 23.745 36.3643 24.0522 36.6591 24.2688C36.9574 24.4819 37.3072 24.5884 37.7085 24.5884C37.9925 24.5884 38.2464 24.5352 38.4702 24.4286C38.6974 24.3185 38.8874 24.1605 39.0401 23.9545C39.1928 23.7486 39.2976 23.4982 39.3544 23.2035H41.1974C41.1513 23.7823 40.9808 24.2955 40.6861 24.7429C40.3913 25.1868 39.9901 25.5348 39.4822 25.7869C38.9744 26.0355 38.3778 26.1598 37.6925 26.1598ZM46.1164 17.8182V19.3097H41.4129V17.8182H46.1164ZM42.5741 15.858H44.5024V23.5391C44.5024 23.7983 44.5415 23.9972 44.6196 24.1357C44.7013 24.2706 44.8078 24.3629 44.9392 24.4126C45.0706 24.4624 45.2162 24.4872 45.376 24.4872C45.4967 24.4872 45.6068 24.4783 45.7062 24.4606C45.8092 24.4428 45.8873 24.4268 45.9406 24.4126L46.2655 25.9201C46.1626 25.9556 46.0152 25.9947 45.8234 26.0373C45.6352 26.0799 45.4044 26.1048 45.1309 26.1119C44.648 26.1261 44.213 26.0533 43.8259 25.8935C43.4388 25.7301 43.1317 25.478 42.9044 25.1371C42.6807 24.7962 42.5706 24.37 42.5741 23.8587V15.858ZM46.979 26V17.8182H48.9073V26H46.979ZM47.9485 16.657C47.6431 16.657 47.3803 16.5558 47.1602 16.3533C46.94 16.1474 46.8299 15.9006 46.8299 15.6129C46.8299 15.3217 46.94 15.0749 47.1602 14.8725C47.3803 14.6665 47.6431 14.5636 47.9485 14.5636C48.2575 14.5636 48.5202 14.6665 48.7369 14.8725C48.957 15.0749 49.0671 15.3217 49.0671 15.6129C49.0671 15.9006 48.957 16.1474 48.7369 16.3533C48.5202 16.5558 48.2575 16.657 47.9485 16.657ZM53.7091 26.1598C52.9101 26.1598 52.2176 25.984 51.6317 25.6325C51.0457 25.2809 50.5912 24.7891 50.268 24.157C49.9484 23.5249 49.7886 22.7862 49.7886 21.9411C49.7886 21.0959 49.9484 20.3555 50.268 19.7198C50.5912 19.0842 51.0457 18.5906 51.6317 18.239C52.2176 17.8874 52.9101 17.7116 53.7091 17.7116C54.5081 17.7116 55.2006 17.8874 55.7865 18.239C56.3724 18.5906 56.8252 19.0842 57.1448 19.7198C57.468 20.3555 57.6295 21.0959 57.6295 21.9411C57.6295 22.7862 57.468 23.5249 57.1448 24.157C56.8252 24.7891 56.3724 25.2809 55.7865 25.6325C55.2006 25.984 54.5081 26.1598 53.7091 26.1598ZM53.7197 24.6151C54.153 24.6151 54.5152 24.4961 54.8064 24.2582C55.0976 24.0167 55.3142 23.6935 55.4562 23.2887C55.6018 22.8839 55.6746 22.4329 55.6746 21.9357C55.6746 21.435 55.6018 20.9822 55.4562 20.5774C55.3142 20.169 55.0976 19.8441 54.8064 19.6026C54.5152 19.3612 54.153 19.2404 53.7197 19.2404C53.2758 19.2404 52.9065 19.3612 52.6118 19.6026C52.3206 19.8441 52.1022 20.169 51.9566 20.5774C51.8145 20.9822 51.7435 21.435 51.7435 21.9357C51.7435 22.4329 51.8145 22.8839 51.9566 23.2887C52.1022 23.6935 52.3206 24.0167 52.6118 24.2582C52.9065 24.4961 53.2758 24.6151 53.7197 24.6151ZM60.4444 21.206V26H58.5162V17.8182H60.3592V19.2085H60.4551C60.6433 18.7504 60.9434 18.3864 61.3553 18.1165C61.7708 17.8466 62.2839 17.7116 62.8947 17.7116C63.4593 17.7116 63.9512 17.8324 64.3702 18.0739C64.7928 18.3153 65.1195 18.6651 65.3503 19.1232C65.5847 19.5813 65.7001 20.1371 65.6966 20.7905V26H63.7683V21.0888C63.7683 20.5419 63.6262 20.114 63.3422 19.805C63.0616 19.4961 62.6728 19.3416 62.1756 19.3416C61.8382 19.3416 61.5382 19.4162 61.2754 19.5653C61.0162 19.7109 60.812 19.9222 60.6628 20.1992C60.5172 20.4762 60.4444 20.8118 60.4444 21.206ZM73.7713 26.1491C73.0043 26.1491 72.3224 26.0178 71.7259 25.755C71.1328 25.4922 70.6641 25.1264 70.3196 24.6577C69.9751 24.1889 69.7923 23.6474 69.771 23.033H71.7738C71.7915 23.3278 71.8892 23.5852 72.0668 23.8054C72.2443 24.022 72.4805 24.1907 72.7752 24.3114C73.07 24.4322 73.4002 24.4925 73.766 24.4925C74.1566 24.4925 74.5028 24.4251 74.8047 24.2901C75.1065 24.1516 75.3427 23.9599 75.5131 23.7148C75.6836 23.4698 75.767 23.1875 75.7635 22.8679C75.767 22.5376 75.6818 22.2464 75.5078 21.9943C75.3338 21.7422 75.0817 21.5451 74.7514 21.4031C74.4247 21.261 74.0305 21.19 73.5689 21.19H72.6048V19.6665H73.5689C73.9489 19.6665 74.2809 19.6009 74.565 19.4695C74.8526 19.3381 75.0781 19.1534 75.2415 18.9155C75.4048 18.674 75.4847 18.3952 75.4812 18.0792C75.4847 17.7702 75.4155 17.5021 75.2734 17.2749C75.1349 17.044 74.9379 16.8647 74.6822 16.7369C74.43 16.609 74.1335 16.5451 73.7926 16.5451C73.4588 16.5451 73.1499 16.6055 72.8658 16.7262C72.5817 16.8469 72.3526 17.0192 72.1786 17.2429C72.0046 17.4631 71.9123 17.7259 71.9016 18.0312H70C70.0142 17.4205 70.19 16.8842 70.5273 16.4226C70.8683 15.9574 71.3228 15.5952 71.891 15.3359C72.4592 15.0732 73.0966 14.9418 73.8033 14.9418C74.5313 14.9418 75.1634 15.0785 75.6996 15.3519C76.2393 15.6218 76.6566 15.9858 76.9513 16.4439C77.2461 16.902 77.3935 17.408 77.3935 17.962C77.397 18.5763 77.2159 19.0913 76.8501 19.5067C76.4879 19.9222 76.0121 20.1939 75.4226 20.3217V20.407C76.1896 20.5135 76.7773 20.7976 77.1857 21.2592C77.5977 21.7173 77.8018 22.2873 77.7983 22.9691C77.7983 23.5799 77.6243 24.1268 77.2763 24.6097C76.9318 25.0891 76.456 25.4656 75.8487 25.739C75.245 26.0124 74.5526 26.1491 73.7713 26.1491Z" fill="#F17965"/>
</svg>
