<svg width="140" height="10" viewBox="0 0 140 10" fill="none" xmlns="http://www.w3.org/2000/svg">
<path d="M5.09434 9.036C4.49434 9.036 3.93834 8.928 3.42634 8.712C2.91434 8.496 2.46634 8.196 2.08234 7.812C1.69834 7.42 1.39834 6.968 1.18234 6.456C0.974344 5.944 0.870344 5.392 0.870344 4.8C0.870344 4.208 0.978344 3.656 1.19434 3.144C1.41034 2.632 1.71034 2.184 2.09434 1.8C2.47834 1.408 2.92634 1.104 3.43834 0.887999C3.95834 0.672 4.51834 0.564 5.11834 0.564C5.71834 0.564 6.27434 0.672 6.78634 0.887999C7.30634 1.096 7.75434 1.392 8.13034 1.776C8.51434 2.16 8.81034 2.608 9.01834 3.12C9.23434 3.624 9.34234 4.176 9.34234 4.776C9.34234 5.376 9.23434 5.936 9.01834 6.456C8.80234 6.968 8.49834 7.42 8.10634 7.812C7.72234 8.196 7.27434 8.496 6.76234 8.712C6.25034 8.928 5.69434 9.036 5.09434 9.036ZM5.09434 8.256C5.58234 8.256 6.03434 8.168 6.45034 7.992C6.86634 7.808 7.23034 7.56 7.54234 7.248C7.85434 6.936 8.09434 6.568 8.26234 6.144C8.43834 5.72 8.52634 5.264 8.52634 4.776C8.52634 4.288 8.43834 3.836 8.26234 3.42C8.09434 2.996 7.85834 2.632 7.55434 2.328C7.25834 2.016 6.90234 1.776 6.48634 1.608C6.07034 1.432 5.61434 1.344 5.11834 1.344C4.63034 1.344 4.17434 1.432 3.75034 1.608C3.33434 1.784 2.97034 2.032 2.65834 2.352C2.35434 2.664 2.11834 3.028 1.95034 3.444C1.78234 3.86 1.69834 4.312 1.69834 4.8C1.69834 5.288 1.78234 5.744 1.95034 6.168C2.11834 6.584 2.35434 6.948 2.65834 7.26C2.96234 7.572 3.32234 7.816 3.73834 7.992C4.15434 8.168 4.60634 8.256 5.09434 8.256ZM5.25034 7.224C4.75434 7.224 4.31434 7.124 3.93034 6.924C3.54634 6.716 3.24234 6.428 3.01834 6.06C2.80234 5.692 2.69434 5.272 2.69434 4.8C2.69434 4.328 2.80234 3.908 3.01834 3.54C3.24234 3.172 3.54634 2.888 3.93034 2.688C4.31434 2.48 4.75434 2.376 5.25034 2.376C5.73034 2.376 6.15034 2.48 6.51034 2.688C6.87034 2.888 7.13434 3.164 7.30234 3.516L6.22234 4.152C6.10234 3.952 5.95834 3.808 5.79034 3.72C5.63034 3.632 5.44634 3.588 5.23834 3.588C5.03034 3.588 4.83834 3.636 4.66234 3.732C4.49434 3.828 4.35834 3.968 4.25434 4.152C4.15034 4.336 4.09834 4.552 4.09834 4.8C4.09834 5.048 4.15034 5.264 4.25434 5.448C4.35834 5.632 4.49434 5.772 4.66234 5.868C4.83834 5.964 5.03034 6.012 5.23834 6.012C5.44634 6.012 5.63034 5.968 5.79034 5.88C5.95834 5.792 6.10234 5.648 6.22234 5.448L7.30234 6.072C7.13434 6.424 6.87034 6.704 6.51034 6.912C6.15034 7.12 5.73034 7.224 5.25034 7.224ZM16.6187 9V0.599999H18.5627V9H16.6187ZM25.7762 9.144C25.1282 9.144 24.5242 9.04 23.9642 8.832C23.4122 8.616 22.9322 8.312 22.5242 7.92C22.1162 7.528 21.7962 7.068 21.5642 6.54C21.3402 6.012 21.2282 5.432 21.2282 4.8C21.2282 4.168 21.3402 3.588 21.5642 3.06C21.7962 2.532 22.1162 2.072 22.5242 1.68C22.9402 1.288 23.4242 0.987999 23.9762 0.779999C24.5282 0.564 25.1322 0.456 25.7882 0.456C26.5162 0.456 27.1722 0.584 27.7562 0.84C28.3482 1.088 28.8442 1.456 29.2442 1.944L27.9962 3.096C27.7082 2.768 27.3882 2.524 27.0362 2.364C26.6842 2.196 26.3002 2.112 25.8842 2.112C25.4922 2.112 25.1322 2.176 24.8042 2.304C24.4762 2.432 24.1922 2.616 23.9522 2.856C23.7122 3.096 23.5242 3.38 23.3882 3.708C23.2602 4.036 23.1962 4.4 23.1962 4.8C23.1962 5.2 23.2602 5.564 23.3882 5.892C23.5242 6.22 23.7122 6.504 23.9522 6.744C24.1922 6.984 24.4762 7.168 24.8042 7.296C25.1322 7.424 25.4922 7.488 25.8842 7.488C26.3002 7.488 26.6842 7.408 27.0362 7.248C27.3882 7.08 27.7082 6.828 27.9962 6.492L29.2442 7.644C28.8442 8.132 28.3482 8.504 27.7562 8.76C27.1722 9.016 26.5122 9.144 25.7762 9.144ZM33.5449 3.984H37.5889V5.496H33.5449V3.984ZM33.6889 7.44H38.2609V9H31.7569V0.599999H38.1049V2.16H33.6889V7.44ZM42.5973 7.572V2.028H44.1453V7.572H42.5973ZM40.5213 5.532V4.068H46.2333V5.532H40.5213ZM53.2121 9.144C52.5641 9.144 51.9601 9.04 51.4001 8.832C50.8481 8.616 50.3681 8.312 49.9601 7.92C49.5521 7.528 49.2321 7.068 49.0001 6.54C48.7761 6.012 48.6641 5.432 48.6641 4.8C48.6641 4.168 48.7761 3.588 49.0001 3.06C49.2321 2.532 49.5521 2.072 49.9601 1.68C50.3761 1.288 50.8601 0.987999 51.4121 0.779999C51.9641 0.564 52.5681 0.456 53.2241 0.456C53.9521 0.456 54.6081 0.584 55.1921 0.84C55.7841 1.088 56.2801 1.456 56.6801 1.944L55.4321 3.096C55.1441 2.768 54.8241 2.524 54.4721 2.364C54.1201 2.196 53.7361 2.112 53.3201 2.112C52.9281 2.112 52.5681 2.176 52.2401 2.304C51.9121 2.432 51.6281 2.616 51.3881 2.856C51.1481 3.096 50.9601 3.38 50.8241 3.708C50.6961 4.036 50.6321 4.4 50.6321 4.8C50.6321 5.2 50.6961 5.564 50.8241 5.892C50.9601 6.22 51.1481 6.504 51.3881 6.744C51.6281 6.984 51.9121 7.168 52.2401 7.296C52.5681 7.424 52.9281 7.488 53.3201 7.488C53.7361 7.488 54.1201 7.408 54.4721 7.248C54.8241 7.08 55.1441 6.828 55.4321 6.492L56.6801 7.644C56.2801 8.132 55.7841 8.504 55.1921 8.76C54.6081 9.016 53.9481 9.144 53.2121 9.144ZM59.1929 9V0.599999H62.8289C63.5809 0.599999 64.2289 0.724 64.7729 0.972C65.3169 1.212 65.7369 1.56 66.0329 2.016C66.3289 2.472 66.4769 3.016 66.4769 3.648C66.4769 4.272 66.3289 4.812 66.0329 5.268C65.7369 5.716 65.3169 6.06 64.7729 6.3C64.2289 6.54 63.5809 6.66 62.8289 6.66H60.2729L61.1369 5.808V9H59.1929ZM64.5329 9L62.4329 5.952H64.5089L66.6329 9H64.5329ZM61.1369 6.024L60.2729 5.112H62.7209C63.3209 5.112 63.7689 4.984 64.0649 4.728C64.3609 4.464 64.5089 4.104 64.5089 3.648C64.5089 3.184 64.3609 2.824 64.0649 2.568C63.7689 2.312 63.3209 2.184 62.7209 2.184H60.2729L61.1369 1.26V6.024ZM71.0051 3.984H75.0491V5.496H71.0051V3.984ZM71.1491 7.44H75.7211V9H69.2171V0.599999H75.5651V2.16H71.1491V7.44ZM77.3639 9L81.1079 0.599999H83.0279L86.7839 9H84.7439L81.6719 1.584H82.4399L79.3559 9H77.3639ZM79.2359 7.2L79.7519 5.724H84.0719L84.5999 7.2H79.2359ZM88.8554 9V0.599999H90.4634L94.0394 6.528H93.1874L96.7034 0.599999H98.2994L98.3234 9H96.4994L96.4874 3.396H96.8234L94.0154 8.112H93.1394L90.2714 3.396H90.6794V9H88.8554ZM108.755 9.144C108.139 9.144 107.591 9.044 107.111 8.844C106.631 8.644 106.251 8.372 105.971 8.028C105.691 7.684 105.551 7.288 105.551 6.84C105.551 6.424 105.643 6.052 105.827 5.724C106.011 5.388 106.303 5.076 106.703 4.788C107.103 4.492 107.611 4.204 108.227 3.924C108.675 3.716 109.027 3.532 109.283 3.372C109.539 3.212 109.719 3.06 109.823 2.916C109.927 2.764 109.979 2.612 109.979 2.46C109.979 2.252 109.907 2.084 109.763 1.956C109.627 1.828 109.423 1.764 109.151 1.764C108.863 1.764 108.639 1.836 108.479 1.98C108.319 2.124 108.239 2.308 108.239 2.532C108.239 2.652 108.263 2.772 108.311 2.892C108.359 3.004 108.451 3.136 108.587 3.288C108.723 3.432 108.915 3.62 109.163 3.852L113.591 7.956L112.571 9.144L107.687 4.608C107.407 4.352 107.183 4.112 107.015 3.888C106.847 3.664 106.723 3.444 106.643 3.228C106.571 3.012 106.535 2.788 106.535 2.556C106.535 2.148 106.643 1.788 106.859 1.476C107.075 1.164 107.379 0.924 107.771 0.756C108.163 0.579999 108.623 0.491999 109.151 0.491999C109.639 0.491999 110.059 0.572 110.411 0.732C110.771 0.884 111.051 1.104 111.251 1.392C111.459 1.68 111.563 2.024 111.563 2.424C111.563 2.776 111.475 3.1 111.299 3.396C111.123 3.684 110.847 3.956 110.471 4.212C110.103 4.468 109.619 4.728 109.019 4.992C108.611 5.176 108.287 5.356 108.047 5.532C107.815 5.7 107.647 5.872 107.543 6.048C107.439 6.224 107.387 6.42 107.387 6.636C107.387 6.836 107.447 7.016 107.567 7.176C107.695 7.336 107.871 7.46 108.095 7.548C108.319 7.636 108.583 7.68 108.887 7.68C109.375 7.68 109.823 7.568 110.231 7.344C110.639 7.112 110.983 6.772 111.263 6.324C111.551 5.868 111.755 5.316 111.875 4.668L113.375 5.136C113.207 5.952 112.907 6.66 112.475 7.26C112.043 7.86 111.511 8.324 110.879 8.652C110.247 8.98 109.539 9.144 108.755 9.144ZM124.664 9.144C124.016 9.144 123.412 9.04 122.852 8.832C122.3 8.616 121.82 8.312 121.412 7.92C121.004 7.528 120.684 7.068 120.452 6.54C120.228 6.012 120.116 5.432 120.116 4.8C120.116 4.168 120.228 3.588 120.452 3.06C120.684 2.532 121.004 2.072 121.412 1.68C121.828 1.288 122.312 0.987999 122.864 0.779999C123.416 0.564 124.02 0.456 124.676 0.456C125.404 0.456 126.06 0.584 126.644 0.84C127.236 1.088 127.732 1.456 128.132 1.944L126.884 3.096C126.596 2.768 126.276 2.524 125.924 2.364C125.572 2.196 125.188 2.112 124.772 2.112C124.38 2.112 124.02 2.176 123.692 2.304C123.364 2.432 123.08 2.616 122.84 2.856C122.6 3.096 122.412 3.38 122.276 3.708C122.148 4.036 122.084 4.4 122.084 4.8C122.084 5.2 122.148 5.564 122.276 5.892C122.412 6.22 122.6 6.504 122.84 6.744C123.08 6.984 123.364 7.168 123.692 7.296C124.02 7.424 124.38 7.488 124.772 7.488C125.188 7.488 125.572 7.408 125.924 7.248C126.276 7.08 126.596 6.828 126.884 6.492L128.132 7.644C127.732 8.132 127.236 8.504 126.644 8.76C126.06 9.016 125.4 9.144 124.664 9.144ZM134.549 9.144C133.885 9.144 133.269 9.036 132.701 8.82C132.141 8.604 131.653 8.3 131.237 7.908C130.829 7.516 130.509 7.056 130.277 6.528C130.053 6 129.941 5.424 129.941 4.8C129.941 4.176 130.053 3.6 130.277 3.072C130.509 2.544 130.833 2.084 131.249 1.692C131.665 1.3 132.153 0.995999 132.713 0.779999C133.273 0.564 133.881 0.456 134.537 0.456C135.201 0.456 135.809 0.564 136.361 0.779999C136.921 0.995999 137.405 1.3 137.813 1.692C138.229 2.084 138.553 2.544 138.785 3.072C139.017 3.592 139.133 4.168 139.133 4.8C139.133 5.424 139.017 6.004 138.785 6.54C138.553 7.068 138.229 7.528 137.813 7.92C137.405 8.304 136.921 8.604 136.361 8.82C135.809 9.036 135.205 9.144 134.549 9.144ZM134.537 7.488C134.913 7.488 135.257 7.424 135.569 7.296C135.889 7.168 136.169 6.984 136.409 6.744C136.649 6.504 136.833 6.22 136.961 5.892C137.097 5.564 137.165 5.2 137.165 4.8C137.165 4.4 137.097 4.036 136.961 3.708C136.833 3.38 136.649 3.096 136.409 2.856C136.177 2.616 135.901 2.432 135.581 2.304C135.261 2.176 134.913 2.112 134.537 2.112C134.161 2.112 133.813 2.176 133.493 2.304C133.181 2.432 132.905 2.616 132.665 2.856C132.425 3.096 132.237 3.38 132.101 3.708C131.973 4.036 131.909 4.4 131.909 4.8C131.909 5.192 131.973 5.556 132.101 5.892C132.237 6.22 132.421 6.504 132.653 6.744C132.893 6.984 133.173 7.168 133.493 7.296C133.813 7.424 134.161 7.488 134.537 7.488Z" fill="white"/>
</svg>
